<?xml version="1.0" standalone="no"?>
<!DOCTYPE svg PUBLIC "-//W3C//DTD SVG 20010904//EN"
 "http://www.w3.org/TR/2001/REC-SVG-20010904/DTD/svg10.dtd">
<svg version="1.0" xmlns="http://www.w3.org/2000/svg"
 width="1149.000000pt" height="1056.000000pt" viewBox="0 0 1149.000000 1056.000000"
 preserveAspectRatio="xMidYMid meet">
<metadata>
Created by potrace 1.16, written by Peter Selinger 2001-2019
</metadata>
<g transform="translate(0.000000,1056.000000) scale(0.100000,-0.100000)"
fill="#000000" stroke="none">
<path d="M3818 10057 c-104 -39 -186 -114 -235 -216 -24 -49 -27 -68 -27 -151
0 -87 3 -101 33 -161 39 -81 115 -159 187 -194 l53 -26 -2 -347 -2 -347 -550
-6 -550 -5 -77 -26 c-185 -62 -320 -173 -410 -338 -69 -126 -78 -210 -78 -717
l0 -403 -334 0 -333 0 -39 66 c-159 273 -540 263 -686 -18 -31 -60 -33 -69
-33 -170 0 -73 4 -111 12 -119 7 -7 13 -21 13 -30 0 -26 85 -135 131 -169 127
-92 303 -98 434 -15 61 39 119 101 147 160 l22 45 333 0 333 0 -2 -510 -3
-511 -335 0 -335 0 -31 40 c-47 60 -84 87 -152 110 -74 25 -113 26 -178 5 -78
-26 -136 -75 -170 -141 -25 -50 -29 -69 -29 -138 0 -70 4 -86 29 -130 76 -129
208 -182 350 -141 62 18 135 76 162 128 l15 28 337 -2 337 -3 3 -492 2 -493
-340 0 -340 0 -24 38 c-80 127 -246 174 -379 107 -101 -50 -157 -142 -157
-256 0 -113 60 -207 170 -265 26 -14 57 -18 120 -18 75 -1 91 3 138 29 49 27
89 63 110 101 8 15 53 16 570 14 l132 0 0 -505 0 -505 -335 0 -335 0 -26 52
c-39 77 -122 152 -202 182 -204 78 -418 -19 -507 -229 -25 -59 -25 -195 0
-260 41 -107 114 -187 210 -231 78 -36 211 -40 290 -10 93 37 175 112 219 203
l27 53 329 0 328 0 4 -457 c4 -446 5 -460 27 -528 65 -197 192 -341 376 -425
115 -53 122 -54 710 -60 l550 -5 3 -352 2 -353 -58 -29 c-83 -42 -148 -108
-184 -189 -27 -59 -30 -77 -30 -159 0 -85 3 -98 36 -166 77 -160 230 -241 409
-216 274 37 416 353 267 593 -28 47 -107 117 -158 141 l-42 20 0 358 0 357
478 -2 477 -3 3 -357 c2 -278 -1 -359 -10 -367 -117 -91 -150 -149 -151 -261
0 -62 4 -84 26 -126 38 -75 102 -127 183 -149 64 -17 70 -17 140 -1 60 14 83
26 121 61 70 63 97 122 98 215 0 102 -37 178 -113 234 l-52 39 2 356 3 356
483 3 482 2 0 -364 0 -364 -27 -17 c-76 -50 -123 -129 -130 -220 -12 -150 76
-270 223 -305 119 -29 254 37 317 155 17 32 22 57 22 125 0 104 -18 144 -99
218 l-56 51 0 360 0 361 475 0 475 0 0 -358 0 -358 -49 -23 c-86 -38 -159
-123 -198 -226 -19 -52 -18 -181 1 -239 24 -69 82 -153 134 -191 76 -56 139
-75 246 -75 82 0 102 4 158 28 81 37 152 108 192 192 28 60 30 73 30 165 -1
89 -4 107 -30 160 -36 75 -113 154 -181 185 l-53 24 0 358 0 358 529 0 c455 0
538 2 592 16 234 60 426 238 500 465 32 98 39 208 38 609 l-1 375 331 3 330 2
28 -57 c36 -74 115 -153 190 -189 52 -26 68 -29 158 -29 89 0 106 4 157 28 70
34 153 107 178 158 89 173 63 359 -67 481 -28 25 -65 53 -82 63 -125 64 -276
59 -394 -14 -47 -29 -121 -110 -146 -160 l-21 -41 -330 0 -330 0 0 505 0 504
340 3 339 3 39 -45 c21 -25 63 -58 93 -75 47 -26 64 -29 134 -30 67 0 88 4
130 27 172 91 216 303 92 444 -133 151 -371 130 -477 -41 l-22 -35 -334 2
-335 3 0 483 c0 266 3 487 6 492 8 13 675 13 675 1 0 -20 91 -108 136 -131 70
-35 188 -35 258 0 96 49 166 159 166 264 0 156 -155 297 -313 283 -83 -7 -162
-49 -215 -115 l-43 -54 -327 1 c-180 1 -330 1 -334 1 -5 0 -8 230 -8 510 l0
510 338 0 337 0 14 -32 c26 -60 82 -128 135 -163 99 -65 186 -84 295 -61 208
43 353 255 310 452 -45 212 -230 344 -440 314 -111 -16 -227 -96 -287 -200
-14 -25 -31 -48 -37 -52 -5 -4 -157 -8 -337 -8 l-326 0 -4 478 -4 477 -27 74
c-76 209 -230 358 -442 428 l-80 27 -550 5 -550 6 -3 347 -2 347 37 17 c91 43
147 98 195 194 31 61 33 71 32 165 0 88 -3 107 -27 157 -38 79 -104 148 -179
189 -61 33 -67 34 -174 34 -102 0 -115 -2 -167 -29 -129 -65 -227 -217 -227
-351 0 -81 50 -203 109 -269 27 -30 125 -96 141 -96 6 0 10 -130 10 -355 l0
-355 -475 0 -475 0 0 358 0 358 30 17 c44 27 96 96 115 155 38 116 -4 252 -99
320 -89 64 -174 77 -268 42 -70 -26 -117 -66 -153 -131 -27 -48 -30 -63 -30
-139 0 -76 3 -91 30 -139 18 -32 49 -69 77 -90 l48 -35 0 -358 0 -358 -482 2
-483 3 -3 352 -2 352 27 18 c50 30 84 67 111 118 22 42 26 63 26 130 1 97 -25
156 -95 219 -142 127 -350 88 -443 -85 -24 -43 -29 -65 -30 -123 -1 -104 45
-198 126 -251 l38 -25 -2 -353 -3 -352 -477 -3 -478 -2 0 352 0 353 42 20 c56
27 132 97 161 149 95 169 71 345 -63 477 -83 81 -133 102 -255 106 -67 2 -112
-1 -137 -10z m171 -252 c49 -25 81 -72 81 -118 0 -74 -54 -130 -124 -130 -132
0 -176 177 -61 244 37 22 68 23 104 4z m3632 -2 c59 -29 79 -60 79 -123 0 -33
-7 -48 -38 -81 -33 -36 -43 -41 -84 -41 -56 -1 -98 26 -123 78 -20 42 -15 82
15 125 40 55 94 70 151 42z m1141 -1509 c146 -37 247 -144 282 -297 14 -61 16
-355 16 -2870 0 -3028 3 -2858 -51 -2973 -32 -68 -108 -140 -186 -177 l-68
-32 -2995 0 -2995 0 -76 37 c-124 61 -195 155 -225 298 -12 54 -14 531 -14
2844 0 2006 3 2798 11 2845 29 168 131 282 290 325 47 13 459 15 3003 15 2636
1 2954 -1 3008 -15z m-7584 -1183 c66 -34 89 -106 57 -175 -47 -98 -206 -83
-235 22 -17 64 6 118 65 154 38 23 66 23 113 -1z m9279 -1 c30 -18 73 -84 73
-111 0 -28 -42 -96 -69 -112 -109 -64 -242 54 -183 163 40 73 116 99 179 60z
m-9266 -3773 c60 -40 77 -113 40 -173 -20 -32 -74 -64 -111 -64 -30 0 -75 25
-99 56 -26 33 -29 113 -5 150 37 56 117 70 175 31z m9286 -21 c28 -30 33 -43
33 -85 0 -119 -132 -171 -217 -86 -28 28 -33 40 -33 80 0 88 55 140 140 131
35 -3 51 -11 77 -40z m-6466 -2643 c56 -33 76 -122 40 -176 -39 -59 -105 -81
-159 -53 -87 45 -102 155 -29 219 37 32 102 37 148 10z m3642 -16 c65 -61 55
-153 -22 -204 -42 -28 -80 -29 -122 -4 -118 72 -74 240 63 241 39 0 52 -5 81
-33z"/>
<path d="M5640 7688 c-162 -105 -293 -189 -350 -226 -30 -19 -84 -54 -120 -77
-36 -24 -130 -84 -210 -135 -80 -51 -181 -116 -225 -145 -44 -29 -179 -115
-300 -192 -219 -140 -287 -184 -440 -283 l-80 -52 -229 -461 c-126 -254 -291
-587 -367 -740 -77 -153 -139 -282 -139 -288 0 -5 90 -9 224 -9 l223 0 302
603 302 602 117 76 c64 42 191 125 282 184 91 60 215 141 275 180 61 40 182
119 270 177 88 57 207 135 265 173 58 37 148 97 201 132 53 34 102 63 109 63
14 0 93 -47 297 -180 73 -47 216 -139 318 -205 103 -66 232 -150 288 -186 56
-36 179 -114 272 -174 94 -60 211 -136 260 -169 l90 -61 305 -607 305 -608
227 0 c126 0 228 3 228 6 0 3 -169 342 -375 753 l-375 747 -97 64 c-54 35
-165 105 -248 157 -82 52 -213 134 -290 183 -77 49 -180 115 -230 146 -116 73
-435 277 -500 319 -27 18 -85 54 -128 81 -42 27 -135 86 -205 132 -70 45 -134
82 -142 82 -8 0 -58 -28 -110 -62z"/>
<path d="M5619 6929 c-68 -45 -251 -166 -406 -268 -156 -102 -401 -264 -546
-359 l-262 -172 -207 -413 c-113 -226 -236 -472 -272 -545 l-66 -134 2 -1059
3 -1060 375 0 375 1 5 972 5 973 1132 3 1133 2 2 -975 3 -975 371 -1 c205 -1
377 1 383 5 8 5 10 297 8 1060 l-2 1052 -278 555 -278 554 -299 195 c-165 107
-308 200 -317 205 -19 11 -65 41 -253 163 -63 41 -144 94 -180 117 -36 23
-115 74 -176 113 -61 40 -115 72 -121 72 -5 0 -65 -37 -134 -81z m476 -1084
l0 -350 -334 -3 c-187 -1 -339 2 -344 7 -7 7 -9 158 -7 689 0 10 72 12 343 10
l342 -3 0 -350z"/>
<path d="M5024 4641 c-2 -2 24 -29 59 -60 34 -31 114 -103 177 -161 63 -58
196 -177 295 -265 99 -88 182 -163 183 -167 7 -15 31 -8 55 15 14 12 91 83
173 157 81 74 201 185 267 245 65 61 148 136 183 167 36 32 63 61 62 65 -3 8
-1446 12 -1454 4z"/>
<path d="M6615 4456 c-22 -22 -92 -88 -156 -146 -373 -339 -529 -485 -529
-495 0 -7 28 -36 63 -66 34 -29 67 -59 74 -65 9 -9 113 -102 348 -314 34 -30
101 -91 150 -135 48 -44 92 -81 96 -83 5 -2 9 298 9 672 0 372 -3 675 -7 675
-5 -1 -26 -20 -48 -43z"/>
<path d="M4840 3822 c0 -368 3 -671 6 -675 3 -3 34 20 67 51 105 98 189 175
292 267 55 49 127 115 160 146 33 31 95 87 138 125 42 38 77 74 77 80 0 9
-210 206 -350 329 -25 22 -74 67 -110 100 -161 148 -263 240 -271 243 -5 2 -9
-281 -9 -666z"/>
<path d="M5682 3598 c-54 -50 -314 -287 -366 -333 -24 -21 -264 -243 -313
-289 -29 -27 -51 -51 -49 -53 4 -5 1608 -5 1613 0 2 2 -38 42 -89 88 -51 46
-142 129 -203 184 -60 56 -130 119 -155 141 -24 21 -72 64 -105 94 -72 67
-223 200 -247 219 -15 11 -26 5 -86 -51z"/>
</g>
</svg>
