<svg version="1.1" id="Layer_1" xmlns="http://www.w3.org/2000/svg" xmlns:xlink="http://www.w3.org/1999/xlink" x="0px" y="0px"
	 width="100%" viewBox="0 0 1092 250" enable-background="new 0 0 1092 250" xml:space="preserve">
<path fill="#060101" opacity="1.000000" stroke="none" 
	d="
M795.000000,251.000000 
	C530.000000,251.000000 265.500000,251.000000 1.000000,251.000000 
	C1.000000,167.666672 1.000000,84.333336 1.000000,1.000000 
	C365.000000,1.000000 729.000000,1.000000 1093.000000,1.000000 
	C1093.000000,84.333336 1093.000000,167.666672 1093.000000,251.000000 
	C993.833313,251.000000 894.666687,251.000000 795.000000,251.000000 
M235.559723,122.852211 
	C239.527023,121.841919 243.607147,121.122948 247.397171,119.654984 
	C248.635422,119.175400 249.944366,116.602509 249.709137,115.249870 
	C249.484604,113.958679 247.380600,112.225098 245.947144,112.063087 
	C242.214615,111.641228 238.335220,111.549057 234.624191,112.085274 
	C222.566467,113.827560 221.229156,112.721329 222.047485,100.543945 
	C222.429031,94.866295 224.073166,93.185005 229.846954,93.227448 
	C235.168076,93.266563 240.489746,93.846741 245.805527,93.774277 
	C249.302017,93.726624 253.232071,93.342880 253.141830,88.344505 
	C253.057632,83.680275 249.296402,83.284996 245.992691,83.230423 
	C240.844757,83.145370 235.689636,83.713943 230.534668,83.780342 
	C223.912476,83.865646 222.301895,82.226402 222.034042,75.618561 
	C221.986832,74.453712 222.023880,73.285583 222.015015,72.119019 
	C221.931229,61.077526 216.513535,54.160416 205.769104,52.025970 
	C201.559280,51.189663 197.185837,51.155846 192.882126,50.817726 
	C185.289139,50.221184 183.386337,47.442188 186.010818,40.382763 
	C187.049210,37.589668 188.643829,35.001362 189.654968,32.200596 
	C191.373169,27.441322 189.913132,22.650858 186.213593,20.797556 
	C181.820267,18.596693 178.525284,20.683519 175.752472,23.976877 
	C171.938095,28.507282 171.840210,31.396534 175.212830,35.397266 
	C182.589188,44.147320 180.475143,49.872993 169.055573,52.073227 
	C167.910690,52.293816 166.773193,52.571899 165.619095,52.722157 
	C161.920090,53.203732 159.828323,51.848049 160.005066,47.815811 
	C160.209076,43.161816 160.538498,38.498592 160.414459,33.850029 
	C160.329697,30.673504 159.175064,27.907486 155.123001,27.977718 
	C151.104187,28.047375 150.049896,30.729704 150.026855,33.984253 
	C149.997467,38.132999 150.377991,42.283077 150.432388,46.434544 
	C150.467865,49.140926 150.317123,51.844097 146.946640,52.812595 
	C138.118683,55.349293 132.565079,50.549599 133.385254,41.429996 
	C133.737869,37.508965 133.709335,33.376839 132.784363,29.602768 
	C132.402191,28.043457 129.218094,26.309322 127.295609,26.294397 
	C126.030998,26.284580 124.137184,29.036880 123.631523,30.859285 
	C123.090828,32.807953 123.752197,35.131042 124.057053,37.266697 
	C125.836159,49.730400 125.782913,49.825485 113.424202,52.069073 
	C105.896080,53.435726 105.271248,52.944942 106.007523,45.348145 
	C106.600754,39.227196 107.657257,33.146679 108.119698,27.018904 
	C108.506020,21.899616 104.729660,21.810738 100.995010,21.780872 
	C97.200027,21.750525 93.580063,22.003304 93.879539,27.054903 
	C94.154381,31.690874 94.760468,36.326077 95.527199,40.910339 
	C97.512146,52.778297 97.109322,53.275166 85.334251,51.892120 
	C72.096909,50.337315 64.318550,56.824471 63.473991,70.123573 
	C62.555527,84.586426 62.565147,84.460571 48.094948,83.353546 
	C44.002316,83.040443 39.757324,83.279762 35.725895,84.033867 
	C32.110985,84.710068 29.650742,89.987747 30.635723,93.689110 
	C31.669985,97.575668 34.963978,96.215149 37.302715,96.067894 
	C41.604202,95.797035 45.873108,94.945541 50.143940,94.263107 
	C62.618382,92.269814 63.993118,93.705521 63.242687,106.406830 
	C62.945454,111.437592 60.679581,113.243896 56.019848,112.988831 
	C51.545559,112.743904 47.063366,112.295937 42.595318,112.399117 
	C39.289413,112.475464 36.046707,113.591385 36.240135,117.824837 
	C36.426991,121.914459 39.563259,122.973877 42.946621,122.957253 
	C47.265484,122.936043 51.579929,122.417366 55.901070,122.314842 
	C58.685619,122.248764 61.821007,121.974686 62.827946,125.633659 
	C65.037338,133.662079 60.419380,139.622955 52.195305,139.463226 
	C48.203674,139.385696 44.189308,139.026352 40.226780,139.332413 
	C36.643867,139.609192 33.733578,141.234467 34.177483,145.650589 
	C34.624592,150.098587 37.895561,150.347824 41.184200,149.937027 
	C46.130344,149.319183 51.018528,148.246353 55.960220,147.581497 
	C61.473652,146.839722 62.674366,147.938690 63.150127,153.579727 
	C64.226479,166.341843 63.039429,167.529236 50.503498,166.968399 
	C45.870876,166.761154 41.173489,166.567261 36.591015,167.100693 
	C32.491917,167.577850 29.741299,172.317749 30.594839,176.627594 
	C31.498140,181.188675 35.256336,179.169113 37.923237,179.413803 
	C39.384163,179.547836 40.906036,179.184540 42.383537,178.942444 
	C49.221115,177.822083 56.052776,176.665588 63.463470,175.425507 
	C63.463470,179.341400 63.416840,182.634842 63.476524,185.926376 
	C63.536793,189.249969 63.474918,192.598801 63.867672,195.888702 
	C64.786140,203.582245 67.621506,206.885818 75.180573,208.399582 
	C79.384689,209.241486 83.762993,209.372314 88.072182,209.495895 
	C95.726257,209.715393 96.846741,210.799133 95.939499,218.383698 
	C95.347260,223.334869 94.280586,228.243423 93.965065,233.205307 
	C93.865265,234.774811 95.099564,237.319611 96.418724,237.940414 
	C103.521790,241.283203 108.704834,237.706696 108.034042,230.048691 
	C107.526787,224.257751 106.528030,218.511581 105.879234,212.730759 
	C105.416786,208.610367 107.573486,207.096909 111.530907,207.155457 
	C120.929886,207.294510 123.554939,209.999832 123.492546,219.557663 
	C123.469887,223.029190 123.304405,226.624252 124.138573,229.926926 
	C124.587608,231.704788 126.978127,234.110428 128.558868,234.160934 
	C130.054947,234.208740 132.479218,231.792786 132.992508,230.024261 
	C133.845413,227.085663 133.872971,223.762787 133.583771,220.663773 
	C132.599777,210.119339 134.016693,208.175446 144.610184,206.641266 
	C149.805099,205.888916 151.180588,207.268600 150.592804,212.626511 
	C149.994644,218.079193 149.159607,223.520599 148.886841,228.989807 
	C148.655518,233.627518 150.840240,235.242203 155.043839,233.320786 
	C157.123230,232.370331 159.402802,229.986328 159.894455,227.858688 
	C160.694412,224.397003 160.268387,220.604065 160.063812,216.967560 
	C159.537491,207.611862 161.354126,205.967346 170.598007,207.817657 
	C171.731857,208.044617 172.881317,208.316925 173.942795,208.761185 
	C179.293167,211.000381 180.874268,215.379837 178.113846,220.508453 
	C177.174576,222.253555 175.816803,223.769119 174.815887,225.486130 
	C172.157883,230.045807 173.070053,235.420105 176.930939,238.509415 
	C180.406052,241.290085 184.960953,240.630417 188.567703,237.111679 
	C192.036575,233.727478 191.230270,230.876923 188.210403,227.698334 
	C184.983154,224.301468 182.949280,220.323135 184.973572,215.476334 
	C187.032700,210.546112 191.296127,209.596359 196.050262,209.509140 
	C198.376007,209.466476 200.706635,209.230362 203.018066,208.944443 
	C215.550537,207.394150 221.938004,200.176605 222.015671,187.543243 
	C222.078537,177.319199 223.490540,176.121002 233.751251,176.791397 
	C238.393906,177.094727 243.076553,177.125946 247.723267,176.905640 
	C250.724869,176.763336 253.234161,175.534988 253.201553,171.763641 
	C253.171539,168.294373 251.015747,167.099075 248.083954,166.899521 
	C244.946045,166.685913 241.789078,166.679611 238.641296,166.702057 
	C234.981842,166.728149 231.236954,167.388977 227.698318,166.784317 
	C225.729889,166.447952 223.050751,164.416428 222.499573,162.600266 
	C219.176239,151.650024 223.131332,146.956497 234.332825,147.842834 
	C236.319244,148.000000 238.370071,148.198624 240.307755,147.876434 
	C242.267136,147.550659 244.122940,146.601898 246.024124,145.926025 
	C246.080185,145.347458 246.136261,144.768890 246.192337,144.190323 
	C244.410202,143.388489 242.674866,142.059982 240.835983,141.896591 
	C237.223846,141.575607 233.554077,141.953766 229.908264,141.949432 
	C224.619812,141.943146 222.616364,140.124344 222.095123,135.006226 
	C220.917267,123.440620 223.224045,121.212051 235.559723,122.852211 
M460.576630,156.085907 
	C467.908295,143.732162 475.239960,131.378433 482.571655,119.024696 
	C483.105560,119.090271 483.639496,119.155838 484.173431,119.221413 
	C483.615417,142.192703 483.057404,165.164001 482.496796,188.241547 
	C490.213684,188.241547 497.629486,188.241547 505.284454,188.241547 
	C505.376923,187.192093 505.508087,186.395569 505.508423,185.598984 
	C505.519501,160.278854 505.599945,134.958298 505.469269,109.638840 
	C505.428986,101.830864 504.817261,94.025429 504.449829,86.219650 
	C503.979218,76.220978 496.272339,76.706734 490.052185,79.406769 
	C487.737976,80.411331 485.714508,82.534813 484.086029,84.570183 
	C481.291656,88.062744 478.649078,91.734489 476.405548,95.599632 
	C468.488495,109.239052 460.781311,123.000175 452.957092,136.693741 
	C451.861786,138.610703 450.557281,140.408127 449.012543,142.777985 
	C447.016144,139.586227 445.454681,137.249039 444.051575,134.820374 
	C435.744171,120.441063 427.414490,106.074066 419.210236,91.635918 
	C413.297943,81.231277 404.457336,78.003304 393.114288,80.500488 
	C393.114288,116.383789 393.114288,152.267090 393.114288,188.506622 
	C398.539154,188.506622 403.679169,188.542526 408.818390,188.494751 
	C412.619720,188.459412 414.665100,186.404556 414.932709,182.675110 
	C415.086975,180.525192 415.045074,178.356689 415.006104,176.198105 
	C414.741882,161.561737 414.338104,146.926453 414.255524,132.289261 
	C414.234253,128.523438 415.201111,124.752037 415.714050,120.983192 
	C416.219025,120.948524 416.723999,120.913849 417.228973,120.879173 
	C418.443420,122.599442 419.837646,124.221397 420.841339,126.056923 
	C425.300049,134.210831 429.421387,142.558105 434.118408,150.569489 
	C436.955170,155.407974 440.298676,160.045761 444.011261,164.246292 
	C447.490692,168.183105 450.084473,167.980347 453.725250,164.286407 
	C456.049652,161.928085 458.005096,159.206146 460.576630,156.085907 
M942.997070,98.522423 
	C942.997070,117.100876 942.997070,135.679337 942.997070,154.257797 
	C940.683411,152.761978 939.394409,150.926193 938.062073,149.122375 
	C924.131470,130.261230 910.349060,111.287689 896.191833,92.598145 
	C889.296570,83.495430 880.140503,77.737541 868.154297,77.245995 
	C868.154297,114.118729 868.154297,151.150482 868.154297,188.491425 
	C873.619202,188.491425 878.764526,188.528564 883.908997,188.479630 
	C887.997253,188.440735 889.947693,186.190292 890.069580,182.211990 
	C890.125671,180.380951 890.202515,178.547165 890.161255,176.717072 
	C889.846375,162.743835 889.321716,148.771957 889.262512,134.797974 
	C889.239258,129.307312 890.238708,123.812332 890.911865,116.883652 
	C893.546692,119.214005 895.076904,120.200531 896.123962,121.559334 
	C899.879517,126.433136 903.487976,131.420883 907.122437,136.387253 
	C917.729065,150.880707 928.274048,165.419556 938.937195,179.871216 
	C945.256348,188.435547 954.019958,189.825592 963.688843,188.052475 
	C963.688843,151.312561 963.688843,114.736732 963.688843,77.997490 
	C959.224487,77.997490 955.070190,78.092392 950.922180,77.971336 
	C946.597778,77.845146 944.360596,80.046005 943.939514,84.105591 
	C943.476990,88.565742 943.299255,93.055428 942.997070,98.522423 
M842.338684,177.824493 
	C844.547119,174.327484 847.418884,171.081131 848.850952,167.290787 
	C855.645203,149.307907 857.658508,130.790192 852.887207,111.988747 
	C849.556519,98.864204 842.524780,88.222580 829.670776,82.496803 
	C810.175293,73.812637 790.961731,74.629852 772.110413,84.625412 
	C764.600647,88.607361 759.803955,94.698799 757.978577,102.973541 
	C754.356689,119.392036 754.575439,136.023529 755.841858,152.640182 
	C757.298523,171.753555 772.625977,186.785431 791.869080,188.130417 
	C798.335205,188.582367 804.861206,188.741547 811.331848,188.438049 
	C822.379211,187.919922 833.303589,186.628296 842.338684,177.824493 
M981.991882,165.525986 
	C982.310120,168.167877 982.617371,170.811142 982.948669,173.451401 
	C984.202576,183.444107 986.952637,187.208328 996.976013,187.540344 
	C1017.577515,188.222733 1038.216553,187.914230 1058.837769,187.730972 
	C1062.709595,187.696564 1066.430298,186.467209 1066.208374,181.006683 
	C1065.930176,174.161942 1064.825928,172.057541 1058.700317,171.491364 
	C1052.422729,170.911148 1046.068604,171.087402 1039.747559,171.061966 
	C1026.966675,171.010513 1014.185486,171.046631 1001.123535,171.046631 
	C1001.913208,161.539825 1002.753052,151.429535 1003.610229,141.109756 
	C1009.652588,141.411469 1014.948364,141.806473 1020.250000,141.913376 
	C1031.211914,142.134415 1042.176636,142.278076 1053.140625,142.297684 
	C1057.947266,142.306274 1059.873047,139.359604 1059.844971,134.833893 
	C1059.835693,133.335052 1059.869995,131.835541 1059.838989,130.337280 
	C1059.711548,124.178146 1058.040649,122.162941 1051.828857,122.055832 
	C1043.185059,121.906784 1034.533447,122.260239 1025.884766,122.326454 
	C1018.485291,122.383102 1011.085022,122.338188 1003.415405,122.338188 
	C1002.651672,114.095299 1001.875916,105.722328 1001.068604,97.008751 
	C1004.814087,97.008751 1008.293823,97.065048 1011.771301,96.999100 
	C1027.573853,96.699425 1043.383301,96.558266 1059.174072,95.944130 
	C1065.098633,95.713707 1066.360352,93.684853 1066.007202,87.973724 
	C1065.505127,79.850616 1064.797485,79.005447 1058.361206,78.819450 
	C1054.537598,78.708961 1050.709351,78.409935 1046.891479,78.509331 
	C1030.927734,78.924889 1014.968262,79.511551 999.004395,79.923607 
	C992.779419,80.084282 986.546814,79.949883 979.349121,79.949883 
	C980.246277,109.093254 981.100830,136.853226 981.991882,165.525986 
M533.441895,83.892891 
	C531.049438,86.398849 528.150940,88.587303 526.346985,91.462471 
	C514.898499,109.709549 523.065613,131.530548 543.486084,137.734589 
	C545.073486,138.216858 546.685303,138.649841 548.313171,138.963074 
	C557.127319,140.658966 565.973572,142.197845 574.757690,144.035110 
	C577.979248,144.708893 581.170837,145.805588 584.180847,147.147369 
	C588.950500,149.273529 590.839478,153.528259 591.081543,158.441742 
	C591.317017,163.222076 588.393188,166.282715 584.350586,168.030762 
	C573.247742,172.831665 561.678101,172.990067 550.213867,169.942795 
	C547.790955,169.298767 546.153015,165.670364 544.172852,163.400040 
	C542.075745,160.995621 540.391052,157.172150 537.832886,156.460342 
	C533.194031,155.169601 528.036377,155.498260 523.104187,155.596481 
	C520.033386,155.657654 519.320557,158.057831 520.098022,160.659882 
	C523.710876,172.750580 530.051331,182.651947 543.089783,185.946136 
	C559.507263,190.094055 576.100708,189.670776 592.500610,185.785309 
	C601.103027,183.747223 606.772522,178.040543 608.570862,169.196350 
	C610.487549,159.769897 609.959656,150.391068 607.378418,141.089539 
	C606.107422,136.509781 603.438538,133.425125 598.930298,132.124619 
	C590.324951,129.642181 581.688232,127.265526 573.041626,124.929901 
	C565.511597,122.895897 557.832397,121.333199 550.444153,118.883568 
	C545.645020,117.292351 544.275574,112.784508 545.099731,106.264038 
	C545.683533,101.645111 548.600647,99.452698 552.750549,99.130363 
	C560.680237,98.514420 568.661255,97.869499 576.583801,98.180710 
	C579.891052,98.310623 583.186279,100.693283 586.340271,102.333580 
	C591.414856,104.972641 596.222046,108.182922 601.448853,110.442314 
	C603.356934,111.267113 607.345459,110.882607 608.224060,109.585793 
	C609.356873,107.913940 609.122559,104.363091 608.086853,102.329445 
	C601.420898,89.240799 591.937012,79.569710 576.283203,78.238121 
	C572.472351,77.913971 568.649902,77.555542 564.830872,77.532585 
	C554.184814,77.468582 543.442932,77.083092 533.441895,83.892891 
M329.500000,77.995895 
	C318.714539,77.995895 307.929077,77.995895 297.121063,77.995895 
	C297.121063,115.029930 297.121063,151.590103 297.121063,188.512375 
	C302.218201,188.512375 307.029877,188.596298 311.837341,188.490311 
	C317.371063,188.368332 318.972137,186.950012 319.029053,181.263702 
	C319.092255,174.949585 318.704620,168.626526 318.379578,162.314255 
	C318.076721,156.432220 317.598267,150.559219 317.185425,144.511566 
	C337.116882,145.619843 356.342651,146.688873 376.171753,147.791458 
	C376.171753,142.915436 376.007172,138.295624 376.215637,133.692673 
	C376.448914,128.541473 373.787476,126.325401 369.068756,126.175911 
	C363.910278,126.012489 358.743500,126.102318 353.580322,126.099228 
	C342.504242,126.092590 331.428192,126.097191 319.879181,126.097191 
	C319.159973,117.153397 318.365936,107.278862 317.539703,97.004105 
	C320.570679,97.004105 323.212006,97.033127 325.852509,96.999313 
	C341.006683,96.805252 356.172485,96.886215 371.309814,96.270981 
	C378.965271,95.959846 380.529510,93.823311 380.505768,87.342148 
	C380.483154,81.170006 378.961456,79.260628 371.443817,78.915848 
	C357.810486,78.290596 344.149475,78.269302 329.500000,77.995895 
M694.983643,170.970947 
	C693.067200,170.650345 691.150818,170.329758 688.541687,169.893295 
	C691.707703,165.291992 694.480042,161.195145 697.320435,157.146027 
	C712.590088,135.378387 728.114075,113.783875 743.049866,91.789749 
	C749.798889,81.851181 748.416138,79.283974 736.325989,79.053558 
	C714.057983,78.629158 691.775391,78.858208 669.500122,79.001717 
	C662.891357,79.044289 662.004456,80.424553 662.126160,87.082726 
	C662.226685,92.588524 666.162476,94.096542 670.341919,94.766556 
	C676.895569,95.817200 683.532959,96.384544 690.150146,96.990387 
	C698.777527,97.780289 707.419739,98.407867 716.637024,99.152237 
	C711.941284,105.555695 707.692078,111.090012 703.718689,116.815758 
	C689.700256,137.016953 675.620728,157.179230 661.908142,177.587234 
	C657.611572,183.981735 658.883484,186.677734 666.677490,186.986969 
	C687.604858,187.817230 708.560059,187.986008 729.506165,188.270966 
	C733.306763,188.322678 737.128906,187.782227 740.919128,187.330719 
	C745.182312,186.822845 747.348450,184.542633 747.236328,179.976151 
	C747.126343,175.499283 745.071167,173.199692 740.728699,172.728287 
	C738.583435,172.495422 736.445618,172.082062 734.296326,172.017471 
	C721.495361,171.632751 708.691956,171.326080 694.983643,170.970947 
M631.579224,188.145950 
	C634.730408,188.248199 637.986023,188.872437 640.996460,188.270615 
	C643.030029,187.864075 645.669800,186.104752 646.381592,184.297882 
	C648.468994,178.998672 645.023376,169.250015 640.515503,165.733627 
	C635.042419,161.464310 628.498352,163.536331 627.110535,170.254074 
	C626.345947,173.955521 625.803650,177.922287 626.346191,181.594345 
	C626.686035,183.894531 629.228455,185.869308 631.579224,188.145950 
z"/>
<path fill="#F7F6F6" opacity="1.000000" stroke="none" 
	d="
M235.121613,122.848419 
	C223.224045,121.212051 220.917267,123.440620 222.095123,135.006226 
	C222.616364,140.124344 224.619812,141.943146 229.908264,141.949432 
	C233.554077,141.953766 237.223846,141.575607 240.835983,141.896591 
	C242.674866,142.059982 244.410202,143.388489 246.192337,144.190323 
	C246.136261,144.768890 246.080185,145.347458 246.024124,145.926025 
	C244.122940,146.601898 242.267136,147.550659 240.307755,147.876434 
	C238.370071,148.198624 236.319244,148.000000 234.332825,147.842834 
	C223.131332,146.956497 219.176239,151.650024 222.499573,162.600266 
	C223.050751,164.416428 225.729889,166.447952 227.698318,166.784317 
	C231.236954,167.388977 234.981842,166.728149 238.641296,166.702057 
	C241.789078,166.679611 244.946045,166.685913 248.083954,166.899521 
	C251.015747,167.099075 253.171539,168.294373 253.201553,171.763641 
	C253.234161,175.534988 250.724869,176.763336 247.723267,176.905640 
	C243.076553,177.125946 238.393906,177.094727 233.751251,176.791397 
	C223.490540,176.121002 222.078537,177.319199 222.015671,187.543243 
	C221.938004,200.176605 215.550537,207.394150 203.018066,208.944443 
	C200.706635,209.230362 198.376007,209.466476 196.050262,209.509140 
	C191.296127,209.596359 187.032700,210.546112 184.973572,215.476334 
	C182.949280,220.323135 184.983154,224.301468 188.210403,227.698334 
	C191.230270,230.876923 192.036575,233.727478 188.567703,237.111679 
	C184.960953,240.630417 180.406052,241.290085 176.930939,238.509415 
	C173.070053,235.420105 172.157883,230.045807 174.815887,225.486130 
	C175.816803,223.769119 177.174576,222.253555 178.113846,220.508453 
	C180.874268,215.379837 179.293167,211.000381 173.942795,208.761185 
	C172.881317,208.316925 171.731857,208.044617 170.598007,207.817657 
	C161.354126,205.967346 159.537491,207.611862 160.063812,216.967560 
	C160.268387,220.604065 160.694412,224.397003 159.894455,227.858688 
	C159.402802,229.986328 157.123230,232.370331 155.043839,233.320786 
	C150.840240,235.242203 148.655518,233.627518 148.886841,228.989807 
	C149.159607,223.520599 149.994644,218.079193 150.592804,212.626511 
	C151.180588,207.268600 149.805099,205.888916 144.610184,206.641266 
	C134.016693,208.175446 132.599777,210.119339 133.583771,220.663773 
	C133.872971,223.762787 133.845413,227.085663 132.992508,230.024261 
	C132.479218,231.792786 130.054947,234.208740 128.558868,234.160934 
	C126.978127,234.110428 124.587608,231.704788 124.138573,229.926926 
	C123.304405,226.624252 123.469887,223.029190 123.492546,219.557663 
	C123.554939,209.999832 120.929886,207.294510 111.530907,207.155457 
	C107.573486,207.096909 105.416786,208.610367 105.879234,212.730759 
	C106.528030,218.511581 107.526787,224.257751 108.034042,230.048691 
	C108.704834,237.706696 103.521790,241.283203 96.418724,237.940414 
	C95.099564,237.319611 93.865265,234.774811 93.965065,233.205307 
	C94.280586,228.243423 95.347260,223.334869 95.939499,218.383698 
	C96.846741,210.799133 95.726257,209.715393 88.072182,209.495895 
	C83.762993,209.372314 79.384689,209.241486 75.180573,208.399582 
	C67.621506,206.885818 64.786140,203.582245 63.867672,195.888702 
	C63.474918,192.598801 63.536793,189.249969 63.476524,185.926376 
	C63.416840,182.634842 63.463470,179.341400 63.463470,175.425507 
	C56.052776,176.665588 49.221115,177.822083 42.383537,178.942444 
	C40.906036,179.184540 39.384163,179.547836 37.923237,179.413803 
	C35.256336,179.169113 31.498140,181.188675 30.594839,176.627594 
	C29.741299,172.317749 32.491917,167.577850 36.591015,167.100693 
	C41.173489,166.567261 45.870876,166.761154 50.503498,166.968399 
	C63.039429,167.529236 64.226479,166.341843 63.150127,153.579727 
	C62.674366,147.938690 61.473652,146.839722 55.960220,147.581497 
	C51.018528,148.246353 46.130344,149.319183 41.184200,149.937027 
	C37.895561,150.347824 34.624592,150.098587 34.177483,145.650589 
	C33.733578,141.234467 36.643867,139.609192 40.226780,139.332413 
	C44.189308,139.026352 48.203674,139.385696 52.195305,139.463226 
	C60.419380,139.622955 65.037338,133.662079 62.827946,125.633659 
	C61.821007,121.974686 58.685619,122.248764 55.901070,122.314842 
	C51.579929,122.417366 47.265484,122.936043 42.946621,122.957253 
	C39.563259,122.973877 36.426991,121.914459 36.240135,117.824837 
	C36.046707,113.591385 39.289413,112.475464 42.595318,112.399117 
	C47.063366,112.295937 51.545559,112.743904 56.019848,112.988831 
	C60.679581,113.243896 62.945454,111.437592 63.242687,106.406830 
	C63.993118,93.705521 62.618382,92.269814 50.143940,94.263107 
	C45.873108,94.945541 41.604202,95.797035 37.302715,96.067894 
	C34.963978,96.215149 31.669985,97.575668 30.635723,93.689110 
	C29.650742,89.987747 32.110985,84.710068 35.725895,84.033867 
	C39.757324,83.279762 44.002316,83.040443 48.094948,83.353546 
	C62.565147,84.460571 62.555527,84.586426 63.473991,70.123573 
	C64.318550,56.824471 72.096909,50.337315 85.334251,51.892120 
	C97.109322,53.275166 97.512146,52.778297 95.527199,40.910339 
	C94.760468,36.326077 94.154381,31.690874 93.879539,27.054903 
	C93.580063,22.003304 97.200027,21.750525 100.995010,21.780872 
	C104.729660,21.810738 108.506020,21.899616 108.119698,27.018904 
	C107.657257,33.146679 106.600754,39.227196 106.007523,45.348145 
	C105.271248,52.944942 105.896080,53.435726 113.424202,52.069073 
	C125.782913,49.825485 125.836159,49.730400 124.057053,37.266697 
	C123.752197,35.131042 123.090828,32.807953 123.631523,30.859285 
	C124.137184,29.036880 126.030998,26.284580 127.295609,26.294397 
	C129.218094,26.309322 132.402191,28.043457 132.784363,29.602768 
	C133.709335,33.376839 133.737869,37.508965 133.385254,41.429996 
	C132.565079,50.549599 138.118683,55.349293 146.946640,52.812595 
	C150.317123,51.844097 150.467865,49.140926 150.432388,46.434544 
	C150.377991,42.283077 149.997467,38.132999 150.026855,33.984253 
	C150.049896,30.729704 151.104187,28.047375 155.123001,27.977718 
	C159.175064,27.907486 160.329697,30.673504 160.414459,33.850029 
	C160.538498,38.498592 160.209076,43.161816 160.005066,47.815811 
	C159.828323,51.848049 161.920090,53.203732 165.619095,52.722157 
	C166.773193,52.571899 167.910690,52.293816 169.055573,52.073227 
	C180.475143,49.872993 182.589188,44.147320 175.212830,35.397266 
	C171.840210,31.396534 171.938095,28.507282 175.752472,23.976877 
	C178.525284,20.683519 181.820267,18.596693 186.213593,20.797556 
	C189.913132,22.650858 191.373169,27.441322 189.654968,32.200596 
	C188.643829,35.001362 187.049210,37.589668 186.010818,40.382763 
	C183.386337,47.442188 185.289139,50.221184 192.882126,50.817726 
	C197.185837,51.155846 201.559280,51.189663 205.769104,52.025970 
	C216.513535,54.160416 221.931229,61.077526 222.015015,72.119019 
	C222.023880,73.285583 221.986832,74.453712 222.034042,75.618561 
	C222.301895,82.226402 223.912476,83.865646 230.534668,83.780342 
	C235.689636,83.713943 240.844757,83.145370 245.992691,83.230423 
	C249.296402,83.284996 253.057632,83.680275 253.141830,88.344505 
	C253.232071,93.342880 249.302017,93.726624 245.805527,93.774277 
	C240.489746,93.846741 235.168076,93.266563 229.846954,93.227448 
	C224.073166,93.185005 222.429031,94.866295 222.047485,100.543945 
	C221.229156,112.721329 222.566467,113.827560 234.624191,112.085274 
	C238.335220,111.549057 242.214615,111.641228 245.947144,112.063087 
	C247.380600,112.225098 249.484604,113.958679 249.709137,115.249870 
	C249.944366,116.602509 248.635422,119.175400 247.397171,119.654984 
	C243.607147,121.122948 239.527023,121.841919 235.121613,122.848419 
M69.319450,68.227303 
	C69.319450,111.619194 69.319450,155.011093 69.319450,198.593964 
	C117.186836,198.593964 163.924072,198.593964 210.845703,198.593964 
	C210.845703,152.823883 210.845703,107.276123 210.845703,61.312088 
	C173.094284,60.881798 135.643524,60.334263 98.190887,60.126732 
	C90.412613,60.083630 82.619499,61.220528 74.849190,61.977551 
	C71.752380,62.279259 69.517509,63.829540 69.319450,68.227303 
z"/>
<path fill="#FBFBFB" opacity="1.000000" stroke="none" 
	d="
M460.351257,156.366562 
	C458.005096,159.206146 456.049652,161.928085 453.725250,164.286407 
	C450.084473,167.980347 447.490692,168.183105 444.011261,164.246292 
	C440.298676,160.045761 436.955170,155.407974 434.118408,150.569489 
	C429.421387,142.558105 425.300049,134.210831 420.841339,126.056923 
	C419.837646,124.221397 418.443420,122.599442 417.228973,120.879173 
	C416.723999,120.913849 416.219025,120.948524 415.714050,120.983192 
	C415.201111,124.752037 414.234253,128.523438 414.255524,132.289261 
	C414.338104,146.926453 414.741882,161.561737 415.006104,176.198105 
	C415.045074,178.356689 415.086975,180.525192 414.932709,182.675110 
	C414.665100,186.404556 412.619720,188.459412 408.818390,188.494751 
	C403.679169,188.542526 398.539154,188.506622 393.114288,188.506622 
	C393.114288,152.267090 393.114288,116.383789 393.110077,80.502792 
	C404.457336,78.003304 413.297943,81.231277 419.210236,91.635918 
	C427.414490,106.074066 435.744171,120.441063 444.051575,134.820374 
	C445.454681,137.249039 447.016144,139.586227 449.012543,142.777985 
	C450.557281,140.408127 451.861786,138.610703 452.957092,136.693741 
	C460.781311,123.000175 468.488495,109.239052 476.405548,95.599632 
	C478.649078,91.734489 481.291656,88.062744 484.086029,84.570183 
	C485.714508,82.534813 487.737976,80.411331 490.052185,79.406769 
	C496.272339,76.706734 503.979218,76.220978 504.449829,86.219650 
	C504.817261,94.025429 505.428986,101.830864 505.469269,109.638840 
	C505.599945,134.958298 505.519501,160.278854 505.508423,185.598984 
	C505.508087,186.395569 505.376923,187.192093 505.284454,188.241547 
	C497.629486,188.241547 490.213684,188.241547 482.496796,188.241547 
	C483.057404,165.164001 483.615417,142.192703 484.173431,119.221413 
	C483.639496,119.155838 483.105560,119.090271 482.571655,119.024696 
	C475.239960,131.378433 467.908295,143.732162 460.351257,156.366562 
z"/>
<path fill="#FDFDFD" opacity="1.000000" stroke="none" 
	d="
M942.997192,98.027328 
	C943.299255,93.055428 943.476990,88.565742 943.939514,84.105591 
	C944.360596,80.046005 946.597778,77.845146 950.922180,77.971336 
	C955.070190,78.092392 959.224487,77.997490 963.688843,77.997490 
	C963.688843,114.736732 963.688843,151.312561 963.688843,188.052475 
	C954.019958,189.825592 945.256348,188.435547 938.937195,179.871216 
	C928.274048,165.419556 917.729065,150.880707 907.122437,136.387253 
	C903.487976,131.420883 899.879517,126.433136 896.123962,121.559334 
	C895.076904,120.200531 893.546692,119.214005 890.911865,116.883652 
	C890.238708,123.812332 889.239258,129.307312 889.262512,134.797974 
	C889.321716,148.771957 889.846375,162.743835 890.161255,176.717072 
	C890.202515,178.547165 890.125671,180.380951 890.069580,182.211990 
	C889.947693,186.190292 887.997253,188.440735 883.908997,188.479630 
	C878.764526,188.528564 873.619202,188.491425 868.154297,188.491425 
	C868.154297,151.150482 868.154297,114.118729 868.154297,77.245995 
	C880.140503,77.737541 889.296570,83.495430 896.191833,92.598145 
	C910.349060,111.287689 924.131470,130.261230 938.062073,149.122375 
	C939.394409,150.926193 940.683411,152.761978 942.997070,154.257797 
	C942.997070,135.679337 942.997070,117.100876 942.997192,98.027328 
z"/>
<path fill="#FBFBFB" opacity="1.000000" stroke="none" 
	d="
M842.085815,178.078491 
	C833.303589,186.628296 822.379211,187.919922 811.331848,188.438049 
	C804.861206,188.741547 798.335205,188.582367 791.869080,188.130417 
	C772.625977,186.785431 757.298523,171.753555 755.841858,152.640182 
	C754.575439,136.023529 754.356689,119.392036 757.978577,102.973541 
	C759.803955,94.698799 764.600647,88.607361 772.110413,84.625412 
	C790.961731,74.629852 810.175293,73.812637 829.670776,82.496803 
	C842.524780,88.222580 849.556519,98.864204 852.887207,111.988747 
	C857.658508,130.790192 855.645203,149.307907 848.850952,167.290787 
	C847.418884,171.081131 844.547119,174.327484 842.085815,178.078491 
M812.483032,171.177124 
	C821.819275,169.973282 828.091858,164.789337 831.077271,156.018143 
	C836.370117,140.467514 835.527344,124.919571 829.746155,109.694809 
	C827.529663,103.857513 823.227722,99.530296 816.877502,98.190376 
	C806.622681,96.026573 796.390747,96.572174 786.281799,99.345680 
	C782.408508,100.408356 779.903870,102.850594 779.106995,106.803391 
	C775.726746,123.570320 775.195435,140.435913 778.134888,157.292984 
	C779.349121,164.256577 783.567688,169.251511 790.870178,170.168243 
	C797.740173,171.030685 804.719849,171.019592 812.483032,171.177124 
z"/>
<path fill="#FAFAFA" opacity="1.000000" stroke="none" 
	d="
M981.973633,165.069595 
	C981.100830,136.853226 980.246277,109.093254 979.349121,79.949883 
	C986.546814,79.949883 992.779419,80.084282 999.004395,79.923607 
	C1014.968262,79.511551 1030.927734,78.924889 1046.891479,78.509331 
	C1050.709351,78.409935 1054.537598,78.708961 1058.361206,78.819450 
	C1064.797485,79.005447 1065.505127,79.850616 1066.007202,87.973724 
	C1066.360352,93.684853 1065.098633,95.713707 1059.174072,95.944130 
	C1043.383301,96.558266 1027.573853,96.699425 1011.771301,96.999100 
	C1008.293823,97.065048 1004.814087,97.008751 1001.068604,97.008751 
	C1001.875916,105.722328 1002.651672,114.095299 1003.415405,122.338188 
	C1011.085022,122.338188 1018.485291,122.383102 1025.884766,122.326454 
	C1034.533447,122.260239 1043.185059,121.906784 1051.828857,122.055832 
	C1058.040649,122.162941 1059.711548,124.178146 1059.838989,130.337280 
	C1059.869995,131.835541 1059.835693,133.335052 1059.844971,134.833893 
	C1059.873047,139.359604 1057.947266,142.306274 1053.140625,142.297684 
	C1042.176636,142.278076 1031.211914,142.134415 1020.250000,141.913376 
	C1014.948364,141.806473 1009.652588,141.411469 1003.610229,141.109756 
	C1002.753052,151.429535 1001.913208,161.539825 1001.123535,171.046631 
	C1014.185486,171.046631 1026.966675,171.010513 1039.747559,171.061966 
	C1046.068604,171.087402 1052.422729,170.911148 1058.700317,171.491364 
	C1064.825928,172.057541 1065.930176,174.161942 1066.208374,181.006683 
	C1066.430298,186.467209 1062.709595,187.696564 1058.837769,187.730972 
	C1038.216553,187.914230 1017.577515,188.222733 996.976013,187.540344 
	C986.952637,187.208328 984.202576,183.444107 982.948669,173.451401 
	C982.617371,170.811142 982.310120,168.167877 981.973633,165.069595 
z"/>
<path fill="#FBFBFB" opacity="1.000000" stroke="none" 
	d="
M533.733398,83.678467 
	C543.442932,77.083092 554.184814,77.468582 564.830872,77.532585 
	C568.649902,77.555542 572.472351,77.913971 576.283203,78.238121 
	C591.937012,79.569710 601.420898,89.240799 608.086853,102.329445 
	C609.122559,104.363091 609.356873,107.913940 608.224060,109.585793 
	C607.345459,110.882607 603.356934,111.267113 601.448853,110.442314 
	C596.222046,108.182922 591.414856,104.972641 586.340271,102.333580 
	C583.186279,100.693283 579.891052,98.310623 576.583801,98.180710 
	C568.661255,97.869499 560.680237,98.514420 552.750549,99.130363 
	C548.600647,99.452698 545.683533,101.645111 545.099731,106.264038 
	C544.275574,112.784508 545.645020,117.292351 550.444153,118.883568 
	C557.832397,121.333199 565.511597,122.895897 573.041626,124.929901 
	C581.688232,127.265526 590.324951,129.642181 598.930298,132.124619 
	C603.438538,133.425125 606.107422,136.509781 607.378418,141.089539 
	C609.959656,150.391068 610.487549,159.769897 608.570862,169.196350 
	C606.772522,178.040543 601.103027,183.747223 592.500610,185.785309 
	C576.100708,189.670776 559.507263,190.094055 543.089783,185.946136 
	C530.051331,182.651947 523.710876,172.750580 520.098022,160.659882 
	C519.320557,158.057831 520.033386,155.657654 523.104187,155.596481 
	C528.036377,155.498260 533.194031,155.169601 537.832886,156.460342 
	C540.391052,157.172150 542.075745,160.995621 544.172852,163.400040 
	C546.153015,165.670364 547.790955,169.298767 550.213867,169.942795 
	C561.678101,172.990067 573.247742,172.831665 584.350586,168.030762 
	C588.393188,166.282715 591.317017,163.222076 591.081543,158.441742 
	C590.839478,153.528259 588.950500,149.273529 584.180847,147.147369 
	C581.170837,145.805588 577.979248,144.708893 574.757690,144.035110 
	C565.973572,142.197845 557.127319,140.658966 548.313171,138.963074 
	C546.685303,138.649841 545.073486,138.216858 543.486084,137.734589 
	C523.065613,131.530548 514.898499,109.709549 526.346985,91.462471 
	C528.150940,88.587303 531.049438,86.398849 533.733398,83.678467 
z"/>
<path fill="#FCFCFC" opacity="1.000000" stroke="none" 
	d="
M330.000000,77.995895 
	C344.149475,78.269302 357.810486,78.290596 371.443817,78.915848 
	C378.961456,79.260628 380.483154,81.170006 380.505768,87.342148 
	C380.529510,93.823311 378.965271,95.959846 371.309814,96.270981 
	C356.172485,96.886215 341.006683,96.805252 325.852509,96.999313 
	C323.212006,97.033127 320.570679,97.004105 317.539703,97.004105 
	C318.365936,107.278862 319.159973,117.153397 319.879181,126.097191 
	C331.428192,126.097191 342.504242,126.092590 353.580322,126.099228 
	C358.743500,126.102318 363.910278,126.012489 369.068756,126.175911 
	C373.787476,126.325401 376.448914,128.541473 376.215637,133.692673 
	C376.007172,138.295624 376.171753,142.915436 376.171753,147.791458 
	C356.342651,146.688873 337.116882,145.619843 317.185425,144.511566 
	C317.598267,150.559219 318.076721,156.432220 318.379578,162.314255 
	C318.704620,168.626526 319.092255,174.949585 319.029053,181.263702 
	C318.972137,186.950012 317.371063,188.368332 311.837341,188.490311 
	C307.029877,188.596298 302.218201,188.512375 297.121063,188.512375 
	C297.121063,151.590103 297.121063,115.029930 297.121063,77.995895 
	C307.929077,77.995895 318.714539,77.995895 330.000000,77.995895 
z"/>
<path fill="#FAFAFA" opacity="1.000000" stroke="none" 
	d="
M695.436523,170.982056 
	C708.691956,171.326080 721.495361,171.632751 734.296326,172.017471 
	C736.445618,172.082062 738.583435,172.495422 740.728699,172.728287 
	C745.071167,173.199692 747.126343,175.499283 747.236328,179.976151 
	C747.348450,184.542633 745.182312,186.822845 740.919128,187.330719 
	C737.128906,187.782227 733.306763,188.322678 729.506165,188.270966 
	C708.560059,187.986008 687.604858,187.817230 666.677490,186.986969 
	C658.883484,186.677734 657.611572,183.981735 661.908142,177.587234 
	C675.620728,157.179230 689.700256,137.016953 703.718689,116.815758 
	C707.692078,111.090012 711.941284,105.555695 716.637024,99.152237 
	C707.419739,98.407867 698.777527,97.780289 690.150146,96.990387 
	C683.532959,96.384544 676.895569,95.817200 670.341919,94.766556 
	C666.162476,94.096542 662.226685,92.588524 662.126160,87.082726 
	C662.004456,80.424553 662.891357,79.044289 669.500122,79.001717 
	C691.775391,78.858208 714.057983,78.629158 736.325989,79.053558 
	C748.416138,79.283974 749.798889,81.851181 743.049866,91.789749 
	C728.114075,113.783875 712.590088,135.378387 697.320435,157.146027 
	C694.480042,161.195145 691.707703,165.291992 688.541687,169.893295 
	C691.150818,170.329758 693.067200,170.650345 695.436523,170.982056 
z"/>
<path fill="#F7F7F7" opacity="1.000000" stroke="none" 
	d="
M631.180908,188.068024 
	C629.228455,185.869308 626.686035,183.894531 626.346191,181.594345 
	C625.803650,177.922287 626.345947,173.955521 627.110535,170.254074 
	C628.498352,163.536331 635.042419,161.464310 640.515503,165.733627 
	C645.023376,169.250015 648.468994,178.998672 646.381592,184.297882 
	C645.669800,186.104752 643.030029,187.864075 640.996460,188.270615 
	C637.986023,188.872437 634.730408,188.248199 631.180908,188.068024 
z"/>
<path fill="#070202" opacity="1.000000" stroke="none" 
	d="
M69.411194,67.802353 
	C69.517509,63.829540 71.752380,62.279259 74.849190,61.977551 
	C82.619499,61.220528 90.412613,60.083630 98.190887,60.126732 
	C135.643524,60.334263 173.094284,60.881798 210.845703,61.312088 
	C210.845703,107.276123 210.845703,152.823883 210.845703,198.593964 
	C163.924072,198.593964 117.186836,198.593964 69.319450,198.593964 
	C69.319450,155.011093 69.319450,111.619194 69.411194,67.802353 
M134.791199,93.175186 
	C124.230820,99.701157 114.014496,106.766716 108.218483,118.167397 
	C98.960899,136.376968 100.141518,155.892487 102.191925,175.362656 
	C102.617722,179.405930 105.836647,180.416779 109.640137,180.219894 
	C113.536423,180.018219 114.970665,177.683395 114.966331,174.344879 
	C114.958565,168.361420 114.743217,162.372742 114.422150,156.396591 
	C114.032982,149.153030 113.444221,141.920212 112.948349,134.776779 
	C131.395874,134.776779 149.170486,134.776779 167.295105,134.776779 
	C167.363449,136.297531 167.452484,137.582657 167.474091,138.868896 
	C167.655823,149.686844 167.662506,160.510925 168.056229,171.320984 
	C168.313370,178.381638 170.209991,180.176941 176.082870,180.177551 
	C181.811264,180.178146 183.593582,178.325272 184.002579,171.200317 
	C184.355316,165.055298 184.527893,158.889404 184.491577,152.734421 
	C184.329620,125.275856 171.759720,105.524307 147.294571,93.214035 
	C143.373657,91.241127 139.499054,90.352867 134.791199,93.175186 
M91.531326,115.055313 
	C89.547882,119.230576 87.217957,123.288788 85.748856,127.637794 
	C85.147957,129.416611 86.409180,131.824463 86.823280,133.946136 
	C88.670326,133.129486 91.173851,132.813110 92.246124,131.406021 
	C96.057671,126.404320 99.936607,121.314331 102.780945,115.742638 
	C109.913200,101.771484 121.683228,93.406357 135.374878,87.018158 
	C140.415100,84.666519 145.237152,84.803993 150.214508,87.184036 
	C161.078476,92.378952 170.332321,99.481949 177.060852,109.578636 
	C181.111710,115.657265 184.851074,121.946251 188.992416,127.960312 
	C190.440628,130.063400 192.672516,131.626877 195.341202,134.204269 
	C195.725204,131.659225 196.103806,130.683792 195.972824,129.782394 
	C194.553650,120.014763 190.347809,111.478363 184.343430,103.740875 
	C173.551697,89.834236 158.426041,81.636635 143.678787,72.971558 
	C142.696869,72.394608 140.749512,72.578720 139.674332,73.173607 
	C120.873772,83.575905 103.578972,95.759178 91.531326,115.055313 
M141.270035,166.026260 
	C135.973770,166.571838 129.326340,172.895844 127.683640,179.353363 
	C138.212585,179.353363 148.606689,179.353363 159.000793,179.353363 
	C159.258133,178.701233 159.515472,178.049103 159.772812,177.396973 
	C153.861389,173.650925 147.949966,169.904892 141.270035,166.026260 
M121.824768,154.692322 
	C121.824768,160.022949 121.824768,165.353577 121.824768,170.684219 
	C122.572113,170.923004 123.319450,171.161789 124.066795,171.400589 
	C127.184250,168.126633 130.412628,164.946976 133.335953,161.507996 
	C134.010422,160.714554 134.231674,158.544281 133.651489,157.842026 
	C130.615311,154.167114 127.253960,150.760818 124.005646,147.261154 
	C123.485687,147.547821 122.965736,147.834473 122.445778,148.121140 
	C122.238983,150.001144 122.032181,151.881149 121.824768,154.692322 
z"/>
<path fill="#060101" opacity="1.000000" stroke="none" 
	d="
M812.067139,171.284973 
	C804.719849,171.019592 797.740173,171.030685 790.870178,170.168243 
	C783.567688,169.251511 779.349121,164.256577 778.134888,157.292984 
	C775.195435,140.435913 775.726746,123.570320 779.106995,106.803391 
	C779.903870,102.850594 782.408508,100.408356 786.281799,99.345680 
	C796.390747,96.572174 806.622681,96.026573 816.877502,98.190376 
	C823.227722,99.530296 827.529663,103.857513 829.746155,109.694809 
	C835.527344,124.919571 836.370117,140.467514 831.077271,156.018143 
	C828.091858,164.789337 821.819275,169.973282 812.067139,171.284973 
z"/>
<path fill="#F9F9F9" opacity="1.000000" stroke="none" 
	d="
M135.144196,93.042465 
	C139.499054,90.352867 143.373657,91.241127 147.294571,93.214035 
	C171.759720,105.524307 184.329620,125.275856 184.491577,152.734421 
	C184.527893,158.889404 184.355316,165.055298 184.002579,171.200317 
	C183.593582,178.325272 181.811264,180.178146 176.082870,180.177551 
	C170.209991,180.176941 168.313370,178.381638 168.056229,171.320984 
	C167.662506,160.510925 167.655823,149.686844 167.474091,138.868896 
	C167.452484,137.582657 167.363449,136.297531 167.295105,134.776779 
	C149.170486,134.776779 131.395874,134.776779 112.948349,134.776779 
	C113.444221,141.920212 114.032982,149.153030 114.422150,156.396591 
	C114.743217,162.372742 114.958565,168.361420 114.966331,174.344879 
	C114.970665,177.683395 113.536423,180.018219 109.640137,180.219894 
	C105.836647,180.416779 102.617722,179.405930 102.191925,175.362656 
	C100.141518,155.892487 98.960899,136.376968 108.218483,118.167397 
	C114.014496,106.766716 124.230820,99.701157 135.144196,93.042465 
M138.051239,106.320137 
	C134.028351,110.269730 133.292374,115.586128 136.280838,119.108894 
	C138.777847,122.052345 144.163879,122.682259 147.674728,120.441452 
	C150.895157,118.386009 151.963531,113.242950 149.995468,109.269646 
	C148.177170,105.598701 144.465469,104.526939 138.051239,106.320137 
z"/>
<path fill="#F8F8F8" opacity="1.000000" stroke="none" 
	d="
M91.729195,114.750427 
	C103.578972,95.759178 120.873772,83.575905 139.674332,73.173607 
	C140.749512,72.578720 142.696869,72.394608 143.678787,72.971558 
	C158.426041,81.636635 173.551697,89.834236 184.343430,103.740875 
	C190.347809,111.478363 194.553650,120.014763 195.972824,129.782394 
	C196.103806,130.683792 195.725204,131.659225 195.341202,134.204269 
	C192.672516,131.626877 190.440628,130.063400 188.992416,127.960312 
	C184.851074,121.946251 181.111710,115.657265 177.060852,109.578636 
	C170.332321,99.481949 161.078476,92.378952 150.214508,87.184036 
	C145.237152,84.803993 140.415100,84.666519 135.374878,87.018158 
	C121.683228,93.406357 109.913200,101.771484 102.780945,115.742638 
	C99.936607,121.314331 96.057671,126.404320 92.246124,131.406021 
	C91.173851,132.813110 88.670326,133.129486 86.823280,133.946136 
	C86.409180,131.824463 85.147957,129.416611 85.748856,127.637794 
	C87.217957,123.288788 89.547882,119.230576 91.729195,114.750427 
z"/>
<path fill="#F9F8F8" opacity="1.000000" stroke="none" 
	d="
M141.654297,166.092560 
	C147.949966,169.904892 153.861389,173.650925 159.772812,177.396973 
	C159.515472,178.049103 159.258133,178.701233 159.000793,179.353363 
	C148.606689,179.353363 138.212585,179.353363 127.683640,179.353363 
	C129.326340,172.895844 135.973770,166.571838 141.654297,166.092560 
z"/>
<path fill="#FAFAFA" opacity="1.000000" stroke="none" 
	d="
M121.825073,154.226746 
	C122.032181,151.881149 122.238983,150.001144 122.445778,148.121140 
	C122.965736,147.834473 123.485687,147.547821 124.005646,147.261154 
	C127.253960,150.760818 130.615311,154.167114 133.651489,157.842026 
	C134.231674,158.544281 134.010422,160.714554 133.335953,161.507996 
	C130.412628,164.946976 127.184250,168.126633 124.066795,171.400589 
	C123.319450,171.161789 122.572113,170.923004 121.824768,170.684219 
	C121.824768,165.353577 121.824768,160.022949 121.825073,154.226746 
z"/>
<path fill="#100B0B" opacity="1.000000" stroke="none" 
	d="
M138.408875,106.173706 
	C144.465469,104.526939 148.177170,105.598701 149.995468,109.269646 
	C151.963531,113.242950 150.895157,118.386009 147.674728,120.441452 
	C144.163879,122.682259 138.777847,122.052345 136.280838,119.108894 
	C133.292374,115.586128 134.028351,110.269730 138.408875,106.173706 
z"/>
</svg>