<?xml version="1.0" standalone="no"?>
<!DOCTYPE svg PUBLIC "-//W3C//DTD SVG 20010904//EN"
 "http://www.w3.org/TR/2001/REC-SVG-20010904/DTD/svg10.dtd">
<svg version="1.0" xmlns="http://www.w3.org/2000/svg"
 width="262.000000pt" height="60.000000pt" viewBox="0 0 262.000000 60.000000"
 preserveAspectRatio="xMidYMid meet">
<metadata>
Created by potrace 1.10, written by Peter Selinger 2001-2011
</metadata>
<g transform="translate(0.000000,60.000000) scale(0.100000,-0.100000)"
fill="#000000" stroke="none">
<path d="M420 545 c-10 -12 -10 -19 -2 -27 19 -19 14 -35 -14 -41 -23 -4 -25
-2 -22 27 2 22 -1 31 -12 31 -11 0 -14 -9 -12 -31 3 -27 0 -30 -20 -29 -19 2
-23 7 -20 34 1 22 -2 31 -13 31 -11 0 -13 -7 -9 -29 5 -25 3 -29 -21 -33 -27
-6 -27 -5 -21 33 6 35 4 39 -14 39 -18 0 -20 -4 -14 -39 6 -37 5 -38 -20 -34
-34 7 -56 -12 -56 -49 0 -28 -2 -29 -37 -26 -30 2 -38 -1 -41 -16 -3 -16 1
-17 37 -11 39 6 41 6 41 -20 0 -24 -3 -26 -32 -23 -24 2 -33 -1 -33 -12 0 -11
9 -14 33 -12 30 3 33 1 30 -20 -2 -19 -8 -23 -36 -20 -23 1 -32 -2 -32 -13 0
-13 7 -15 35 -9 33 6 35 5 35 -21 0 -25 -3 -26 -37 -23 -30 2 -38 -1 -41 -16
-3 -16 1 -17 37 -11 l41 7 0 -35 c0 -37 12 -47 57 -47 23 0 25 -2 19 -35 -6
-31 -4 -35 14 -35 18 0 20 4 14 38 -6 36 -4 39 17 37 20 -2 24 -7 23 -34 -1
-21 3 -31 12 -31 10 0 13 10 12 31 -3 26 1 32 21 35 22 4 23 2 18 -31 -5 -30
-3 -36 11 -33 12 2 16 12 14 34 -3 27 0 31 19 29 27 -2 36 -20 19 -40 -18 -21
6 -51 27 -34 10 9 11 15 3 23 -20 20 -11 46 16 46 42 0 64 17 64 51 0 28 2 30
38 27 27 -2 37 1 37 12 0 11 -10 14 -37 12 -35 -3 -38 -1 -38 23 0 23 4 26 30
23 16 -2 28 2 27 7 -1 6 -14 9 -29 7 -24 -2 -28 2 -28 24 0 21 4 25 23 23 12
-2 28 0 35 4 21 14 3 27 -28 20 -27 -5 -30 -3 -30 21 0 25 3 27 38 24 27 -2
37 1 37 12 0 11 -10 14 -37 12 -36 -3 -38 -1 -38 27 0 34 -22 51 -64 51 -28 0
-32 10 -16 40 14 26 -12 47 -30 25z m85 -255 l0 -165 -170 0 -170 0 -3 155
c-1 85 0 160 3 167 3 11 41 13 172 11 l168 -3 0 -165z"/>
<path d="M287 398 c-46 -29 -97 -102 -82 -116 7 -7 20 8 46 55 8 15 32 37 52
47 32 18 39 18 62 6 33 -17 52 -37 76 -79 26 -44 37 -32 15 16 -11 24 -35 50
-66 71 -28 17 -51 32 -52 31 -2 0 -25 -14 -51 -31z"/>
<path d="M301 365 c-45 -32 -61 -67 -61 -136 0 -51 3 -59 18 -59 16 0 18 7 14
55 l-4 55 66 0 66 0 0 -55 c0 -48 2 -55 20 -55 18 0 20 7 20 59 0 66 -23 110
-75 141 -30 18 -31 18 -64 -5z m59 -35 c0 -13 -7 -20 -20 -20 -13 0 -20 7 -20
20 0 13 7 20 20 20 13 0 20 -7 20 -20z"/>
<path d="M290 220 c0 -32 1 -33 17 -17 16 16 16 18 0 34 -16 16 -17 15 -17
-17z"/>
<path d="M315 190 c-18 -20 -17 -20 23 -20 23 0 42 2 42 4 0 2 -11 11 -24 19
-22 15 -25 15 -41 -3z"/>
<path d="M710 283 l0 -133 28 0 c26 0 27 1 24 53 l-4 53 71 -4 71 -4 0 27 c0
26 0 26 -67 24 l-68 -3 -3 37 -3 37 75 0 c72 0 76 1 76 23 0 21 -3 22 -100 22
l-100 0 0 -132z"/>
<path d="M1121 338 c-23 -43 -44 -78 -46 -78 -2 0 -22 34 -44 75 -34 62 -46
75 -66 75 l-25 0 0 -130 0 -130 28 0 c27 0 27 1 24 58 -2 33 -2 72 0 88 3 27
6 25 36 -34 22 -43 38 -62 49 -60 8 2 29 28 45 57 16 30 31 57 34 60 3 3 4
-33 2 -82 l-3 -87 28 0 27 0 0 133 c0 132 0 132 -23 132 -19 0 -32 -15 -66
-77z"/>
<path d="M1305 413 c-37 -10 -55 -34 -55 -74 0 -45 22 -64 85 -74 62 -10 73
-15 79 -32 10 -26 -13 -43 -61 -43 -36 0 -46 4 -50 20 -4 14 -14 20 -34 20
-23 0 -27 -3 -22 -17 16 -47 44 -63 108 -63 81 0 105 17 105 74 0 24 -6 49
-14 55 -7 6 -42 17 -77 24 -58 12 -64 15 -64 37 0 22 5 25 45 28 29 2 48 -1
55 -11 5 -7 20 -16 33 -19 29 -8 29 13 -1 47 -17 20 -34 28 -67 30 -25 2 -54
1 -65 -2z"/>
<path d="M1589 410 c-7 -32 -2 -35 62 -40 l67 -5 -69 -94 c-38 -52 -69 -101
-69 -108 0 -10 25 -13 105 -13 98 0 105 1 105 20 0 18 -7 20 -70 20 -38 0 -70
2 -70 5 0 3 32 47 70 99 39 52 70 101 70 108 0 10 -24 13 -100 13 -55 0 -101
-2 -101 -5z"/>
<path d="M1863 405 c-43 -18 -53 -42 -53 -125 0 -66 2 -74 29 -101 26 -25 37
-29 88 -29 71 0 98 17 113 68 24 88 2 164 -54 187 -44 18 -81 18 -123 0z m121
-57 c9 -12 16 -43 16 -68 0 -61 -21 -90 -66 -90 -64 0 -74 12 -74 88 0 40 5
73 12 80 7 7 31 12 54 12 33 0 47 -5 58 -22z"/>
<path d="M2080 284 l0 -134 28 0 c27 0 27 1 24 58 -2 32 -2 73 0 91 3 33 4 33
66 -58 50 -73 68 -91 88 -91 l24 0 0 133 0 132 -25 0 c-25 0 -25 0 -25 -94 l0
-94 -62 89 c-45 62 -71 90 -90 95 l-28 7 0 -134z"/>
<path d="M2448 412 l-98 -3 0 -110 c0 -61 5 -119 10 -130 9 -17 22 -19 104
-19 89 0 93 1 91 22 -1 20 -6 21 -79 19 l-77 -2 3 37 3 38 68 -3 c66 -2 67 -2
67 24 0 26 -1 26 -67 24 l-68 -3 -3 32 -3 32 79 0 c72 0 79 2 77 20 -1 11 -3
21 -6 22 -2 2 -48 2 -101 0z"/>
<path d="M1507 204 c-4 -4 -7 -18 -7 -31 0 -18 5 -23 26 -23 22 0 25 4 22 27
-3 27 -26 41 -41 27z"/>
</g>
</svg>
